<?xml version="1.0" encoding="UTF-8"?>
<svg xmlns="http://www.w3.org/2000/svg" xmlns:xlink="http://www.w3.org/1999/xlink" width="18pt" height="12pt" viewBox="0 0 18 12" version="1.1">
<g id="surface1">
<path style=" stroke:none;fill-rule:nonzero;fill:rgb(0%,0%,0%);fill-opacity:1;" d="M 16.148438 3.554688 C 16.160156 3.664062 16.160156 3.769531 16.160156 3.875 C 16.160156 7.125 12.449219 10.875 5.664062 10.875 C 3.574219 10.875 1.632812 10.46875 0 9.769531 C 0.296875 9.792969 0.582031 9.800781 0.890625 9.800781 C 2.617188 9.800781 4.203125 9.410156 5.472656 8.75 C 3.847656 8.726562 2.488281 8.019531 2.023438 7.042969 C 2.25 7.066406 2.476562 7.082031 2.71875 7.082031 C 3.050781 7.082031 3.378906 7.050781 3.6875 6.996094 C 2 6.769531 0.730469 5.777344 0.730469 4.582031 L 0.730469 4.554688 C 1.222656 4.734375 1.792969 4.851562 2.398438 4.867188 C 1.40625 4.425781 0.753906 3.671875 0.753906 2.816406 C 0.753906 2.359375 0.9375 1.941406 1.257812 1.574219 C 3.074219 3.070312 5.800781 4.042969 8.863281 4.148438 C 8.804688 3.96875 8.773438 3.777344 8.773438 3.585938 C 8.773438 2.230469 10.417969 1.125 12.460938 1.125 C 13.523438 1.125 14.480469 1.425781 15.15625 1.902344 C 15.988281 1.796875 16.789062 1.589844 17.496094 1.308594 C 17.222656 1.878906 16.640625 2.359375 15.875 2.664062 C 16.617188 2.613281 17.335938 2.476562 18 2.285156 C 17.496094 2.773438 16.871094 3.207031 16.148438 3.554688 Z M 16.148438 3.554688 "/>
</g>
</svg>
